<?xml version="1.0" encoding="UTF-8" standalone="no"?>
<!-- Generator: Adobe Illustrator 22.0.1, SVG Export Plug-In . SVG Version: 6.00 Build 0)  -->

<svg
   xmlns:dc="http://purl.org/dc/elements/1.1/"
   xmlns:cc="http://creativecommons.org/ns#"
   xmlns:rdf="http://www.w3.org/1999/02/22-rdf-syntax-ns#"
   xmlns:svg="http://www.w3.org/2000/svg"
   xmlns="http://www.w3.org/2000/svg"
   xmlns:sodipodi="http://sodipodi.sourceforge.net/DTD/sodipodi-0.dtd"
   xmlns:inkscape="http://www.inkscape.org/namespaces/inkscape"
   version="1.1"
   id="Capa_1"
   x="0px"
   y="0px"
   viewBox="0 0 800 179"
   style="enable-background:new 0 0 800 179;"
   xml:space="preserve"
   sodipodi:docname="tOTALplay.svg"
   inkscape:version="0.92.2 (5c3e80d, 2017-08-06)"><metadata
     id="metadata122"><rdf:RDF><cc:Work
         rdf:about=""><dc:format>image/svg+xml</dc:format><dc:type
           rdf:resource="http://purl.org/dc/dcmitype/StillImage" /><dc:title></dc:title></cc:Work></rdf:RDF></metadata><defs
     id="defs120" /><sodipodi:namedview
     pagecolor="#ffffff"
     bordercolor="#ffffff"
     borderopacity="0"
     objecttolerance="10"
     gridtolerance="10"
     guidetolerance="10"
     inkscape:pageopacity="0"
     inkscape:pageshadow="2"
     inkscape:window-width="1600"
     inkscape:window-height="837"
     id="namedview118"
     showgrid="false"
     inkscape:zoom="1.2772116"
     inkscape:cx="493.41365"
     inkscape:cy="96.285172"
     inkscape:window-x="-8"
     inkscape:window-y="-8"
     inkscape:window-maximized="1"
     inkscape:current-layer="Capa_1" /><style
     type="text/css"
     id="style67">
	.st0{fill:#FEFEFE;}
	.st1{fill:#DB1E35;}
	.st2{fill:#9769A4;}
	.st3{fill:#F5B43C;}
	.st4{fill:#D3196A;}
	.st5{fill:#DA0224;}
	.st6{fill:#DA0620;}
	.st7{fill:#37B5DF;}
	.st8{fill:#5C5B60;}
	.st9{fill:#BFCD30;}
	.st10{fill:#D9001B;}
	.st11{fill:#FEFDFD;}
	.st12{fill:#FCFCFD;}
</style><path
     class="st1"
     d="m 710.1,158.6 c 2.84254,-0.90007 5.21491,-0.0766 8.94893,-1.05746 C 729.74893,157.04254 738.3,143.8 734.4,133.8 L 705.6,61.5 c 7.9805,-3.814895 14.50266,-2.891648 22.5,-1.2 7.5,14.6 10.6,30.8 16.5,45.9 0.9,2.5 1.8,5 3.4,9.3 5.8,-17.5 10.9,-33.2 16.1,-48.8 0.8,-2.4 1.19965,-5.046367 3.6,-6.7 6.90761,-2.413841 13.39239,-1.253287 20.3,0.7 3.6,3.8 0.9,7.8 -0.4,11.2 -10.7,27.8 -21.9,55.4 -33.1,82.9 -1,2.5 -2.4,4.9 -3.6,7.3 -4.5,8.5 -11.1,13.8 -21,14.4 -27.85928,0.0349 -19.67322,1.0008 -19.8,-17.9 z"
     id="path71"
     inkscape:connector-curvature="0"
     style="fill:#db1e35"
     sodipodi:nodetypes="cccccccsccccccc" /><g
     id="g125" /><path
     class="st2"
     d="M9.5,64.8c2.8-3.6,6-4,10-1.6C31,70,42.8,76.4,54.3,83.3c6.7,4,6.7,8.3,0,12.3c-11.5,6.9-23.3,13.3-34.9,20  c-3.8,2.2-7.2,2.6-10-1.4C9.5,97.7,9.5,81.3,9.5,64.8z"
     id="path75" /><path
     class="st3"
     d="M16,2.3c12.3,7.1,24.6,14.1,36.9,21.3c8.7,5.1,8.7,8.6-0.2,13.7c-10.9,6.3-21.8,12.5-32.7,18.8  c-4,2.3-7.6,3.3-10.6-1.3c0-15.3,0.3-30.7-0.2-46C9.1,3.3,10.4,1.1,16,2.3z"
     id="path77" /><path
     class="st4"
     d="M9.5,124c2.7-3.7,5.8-4.3,9.8-1.9C31,129,43,135.5,54.7,142.5c6.6,3.9,6.4,7.9-0.5,12.1  c-12.6,7.5-25.4,14.7-38.1,22.1c-5.6,1.2-6.9-0.9-6.7-6.6C9.8,154.7,9.5,139.4,9.5,124z"
     id="path79" /><path
     class="st7"
     d="M 513.86886,123.50727 C 513.47751,104.28478 513,86.9 513.9,69.2 c 0.2,-3.3 -3.1,-8.7 3.9,-9.6 11.2,-1.6 14.2,-0.4 16.7,7.9 5.3,-4.3 10.3,-8.8 17.5,-9.4 22.6,-1.9 36.8,9.9 39.3,33.1 0.9,7.9 0.2,15.8 -1.4,23.6 -5.1,25 -35.1,36.1 -55.2,17 5.7,21.2 -3.3,33.2 -20.4,41.1 -1.9,-11 -0.34567,-22.03841 -0.80796,-34.12249 0.21384,-10.32907 0.35225,-10.37751 0.37682,-15.27024 z"
     id="path85"
     inkscape:connector-curvature="0"
     style="fill:#37b5df"
     sodipodi:nodetypes="ccccccccccc" /><path
     class="st3"
     d="m 706.6,101.7 c 0,4.9 -0.1,9.9 0,14.8 0,1.9 0.6,3.8 0.7,5.7 0,3.5 6.8,3.8 4.4,7.4 -2.8,4.2 -6.9,7.8 -11,11 -4,3.1 -8,-0.1 -9.9,-2.8 -3.8,-5.4 -6.6,-3.8 -11.1,-1.2 -9,5.3 -18.8,7.1 -29.2,4.2 -9.3,-2.6 -15.1,-8.3 -16.7,-18.1 -1.7,-10.2 0.7,-18.9 9.3,-25.4 9.7,-7.4 21.4,-7.5 32.7,-9.3 3.2,-0.5 8.5,2.2 7.9,-4.8 -0.5,-5.6 -3.4,-8.3 -8.9,-8.7 -9.5,-0.7 -18.7,0.9 -27,5.4 -9.5,5.1 -8.29204,-2.877509 -10.2,-7.6 -1.30865,-5.945675 -0.1,-6.2 3.8,-7.9 13.1,-5.8 26.8,-7.5 40.9,-6.2 15.1,1.3 23.2,10.6 24.1,27.9 0.4,5.2 0.2,10.4 0.2,15.6 z"
     id="path87"
     inkscape:connector-curvature="0"
     style="fill:#f5b43c"
     sodipodi:nodetypes="sccscsccccccccccccs" /><path
     class="st8"
     d="M254.3,99.3c0-26.4,14.9-41.2,41.3-41.2c26.8,0,41.3,14.7,41.4,42c0,26.6-15.2,41.8-41.8,41.8  C269,141.8,254.3,126.6,254.3,99.3z"
     id="path89" /><path
     class="st8"
     d="m 471.6,99.4 c 0.8,8.5 -2.6,17 1.5,21.8 7.2,8.5 0.9,11.2 -3.5,16.2 -5.4,6.2 -10.3,4.5 -14.2,-0.5 -3.3,-4.1 -5.3,-3.4 -9.1,-1.1 -9.2,5.7 -19.2,7.8 -29.9,5.1 -9.4,-2.4 -15.5,-8.1 -17.1,-17.8 -1.9,-11.1 0.8,-20.6 10.9,-27.1 9.6,-6.2 20.7,-6.5 31.5,-8 2.9,-0.4 7.7,2 7.3,-4.5 -0.3,-5.1 -2.3,-8.4 -7.6,-8.9 -9.8,-1 -19.3,0.6 -27.8,5.2 -9.3,5.1 -8.53045,-1.547059 -10.4,-7.3 -1.04706,-6.614533 -0.9,-6.2 3.3,-8 13.4,-5.9 27.3,-7.8 41.7,-6.3 14.1,1.4 22.3,9.7 23.4,24 0.4,6.3 0,12.7 0,17.2 z"
     id="path91"
     inkscape:connector-curvature="0"
     style="fill:#5c5b60"
     sodipodi:nodetypes="ccccccccccccccccc" /><path
     class="st8"
     d="m 220.6,96.7 c 0,-12.3 -0.3,-24.6 0.1,-36.9 0.2,-5.5 -1.8,-7 -7,-6.8 -8.2,0.4 -16.4,0 -24.6,0.1 -4,0.1 -6,-0.1 -4.3,-5.3 4.7,-14.8 4.4,-14.9 19.8,-14.9 20.2,0 40.5,-0.1 60.7,0.1 4,0 9.14637,-0.147059 9.4,5.8 -0.3,9.6 -1.11592,13.007958 -9.56159,13.507958 -4.6,0.3 -7.50069,0.223184 -14.03841,0.692042 -5.6,-0.6 -6.7,1.8 -6.7,7 0.2,23.8 -0.2,47.6 0.3,71.4 0.1,7 -1.4,9.4 -8.9,9.1 -15.2,-0.6 -15.2,-0.2 -15.2,-15.1 z"
     id="path93"
     inkscape:connector-curvature="0"
     style="fill:#5c5b60"
     sodipodi:nodetypes="sccccscccccccss" /><path
     class="st8"
     d="m 371.8,32.2 c 0,7.5 0.3,14.6 -0.1,21.6 -0.2,4.8 1.6,6.5 6.1,5.9 7.33872,0.229049 11.60514,-0.667441 12.3,1.5 1.2,4.6 1.2,10 -0.1,14.5 -0.80426,2.229828 -5.9,2 -8.9,1.7 -7.4,-0.8 -10.3,1.5 -9.6,9.3 0.7,8.1 0.1,16.4 0.2,24.6 0.1,10.4 1,11.3 11.1,11.5 3.8,0.1 7.72983,-1.20426 7.9,5.5 -2.99988,12.6966 6.39584,12.84148 -11.1,12.8 -26.4,0.6 -30.7,-5.7 -30.4,-27.9 0.1,-9.6 0,-19.2 0.3,-28.7 0.2,-5 -0.9,-8 -6.7,-7 -8.6,0.02983 -6.4,-5 -6.5,-9.5 -0.2,-4.5 -1.3,-9.9 6.5,-8.7 4.5,0.7 6.9,-0.4 6.9,-6 0.2,-16.1 0.5,-15.317044 16.3,-19.317044 1.7,-0.1 3.3,-1.182956 5.8,-1.782956 z"
     id="path95"
     inkscape:connector-curvature="0"
     style="fill:#5c5b60"
     sodipodi:nodetypes="ccccccccccccccccccc" /><path
     class="st9"
     d="m 594.9,79 c 0,-15.1 0.1,-30.1 -0.1,-45.2 0,-4.5 0.8,-5.7 5.6,-4 17.3,6 17.3,5.9 17.3,24.1 0,20 0.2,40 -0.1,60 -0.1,6 1.2,9.6 8.1,8.5 4.5,-0.7 5.33114,1.28478 5.2,5.7 -1.51523,5.68408 3.9,10.9 -4.6,12.4 -0.5,0.1 -1.1,0 -1.6,0.1 -25.9,2.3 -29.9,-1.3 -29.9,-27.1 0.1,-11.5 0.1,-23 0.1,-34.5 z"
     id="path97"
     inkscape:connector-curvature="0"
     style="fill:#bfcd30"
     sodipodi:nodetypes="sccsccccccs" /><path
     class="st8"
     d="m 512.9,122.4 v 18 c -6.8,0.3 -13.6,1 -20.5,0.1 -8,-1.1 -12.7,-5.6 -12.7,-13.5 -0.3,-31.4 -0.1,-62.9 -0.2,-94.3 0,-3.8 1.1,-4.6 4.8,-3.5 17.8,5 17.9,4.8 17.9,23.3 v 59 c 0,10.8 0,10.8 10.7,10.9 z"
     id="path99"
     inkscape:connector-curvature="0"
     style="fill:#5c5b60"
     sodipodi:nodetypes="ccccccssc" /><path
     class="st7"
     d="M60.8,58c0-6.8-0.3-13.7,0.1-20.5c0.4-6.8,3.8-8.7,9.8-5.4c11.9,6.6,23.8,13.4,35.5,20.4  c6.5,3.9,6.4,7.6,0,11.5c-11.7,7-23.5,13.8-35.4,20.4c-6.3,3.5-9.7,1.4-10-6c-0.3-6.8-0.1-13.7-0.1-20.5C60.7,58,60.8,58,60.8,58z"
     id="path101" /><path
     class="st1"
     d="M116.3,89.4c0-6.8-0.2-13.7,0.1-20.5c0.3-7.1,3.4-9,9.5-5.7C138,69.9,150,76.8,161.9,84c6,3.6,5.9,7.2-0.2,10.9  c-11.9,7.2-24,14.1-36.1,20.8c-6.1,3.3-9,1.4-9.3-5.9C116.1,103,116.3,96.2,116.3,89.4z"
     id="path103" /><path
     class="st9"
     d="M61.8,117.7c0-6.5,0-13.1,0-19.6c0-6.4,3.1-8.9,8.8-5.9c12.7,6.9,25.2,14.1,37.6,21.5c4.7,2.8,4.3,7-0.3,9.8  c-12.4,7.5-24.8,14.8-37.5,21.7c-5.1,2.8-8.5,0.7-8.6-5.4C61.8,132.5,61.8,125.1,61.8,117.7z"
     id="path105" /><path
     class="st0"
     d="m 535.7,98.6 v -5.7 c 0,-12.6 3.3,-16.6 14.3,-17.3 10.9,-0.8 17.3,4.7 18.2,16.2 0.6,7 0.8,14.2 -1.3,21.1 -2.4,8.1 -8.9,12.9 -17.1,12.1 -8.9,-0.8 -13.5,-5.5 -14.1,-15 -0.1,-3.8 0.1,-7.6 0,-11.4 0.1,0 0,0 0,0 z"
     id="path109"
     inkscape:connector-curvature="0"
     style="fill:#fefefe"
     sodipodi:nodetypes="csccccccc" /><path
     class="st11"
     d="m 684,110.2 c -0.69204,11.72318 -10,19.2 -21.3,16 -3.8,-1.1 -6.4,-3.2 -7,-7.1 -0.7,-4.7 -0.7,-9.4 3.6,-12.7 6.4,-5.1 14.1,-6.1 21.7,-5.1 2.75502,0.97682 3.08408,3.94706 3,8.9 z"
     id="path111"
     inkscape:connector-curvature="0"
     style="fill:#fefdfd"
     sodipodi:nodetypes="cccccc" /><path
     class="st0"
     d="M314.1,100.8c-0.2,2.7-0.2,6-0.8,9.2c-2,10.2-7.7,14.5-18.5,14.4c-10-0.2-15.7-4.9-17-15  c-0.7-5.6-0.8-11.5-0.3-17.1c1-11.2,7.2-16.9,18-17.1c10.5-0.2,16.8,5.7,18.1,17C313.9,94.8,313.9,97.5,314.1,100.8z"
     id="path113" /><path
     class="st12"
     d="m 449.8,111.1 c 0,11.2 -13,19.3 -23.4,14.7 -3.9,-1.7 -5.7,-4.8 -5.9,-9.1 -0.3,-5.2 1.6,-9.2 6,-11.8 6.1,-3.6 13,-4.2 19.8,-3.9 3.6,0.2 3.5,0.6 3.5,10.1 z"
     id="path115"
     inkscape:connector-curvature="0"
     style="fill:#fcfcfd"
     sodipodi:nodetypes="sccccs" /></svg>